<svg xmlns="http://www.w3.org/2000/svg" width="32" height="32" style=""><rect id="backgroundrect" width="100%" height="100%" x="0" y="0" fill="none" stroke="none"/><title/><g class="currentLayer" style=""><title>Layer 1</title><g data-name="Layer 11" id="Layer_11" class="" fill="#b8b804" fill-opacity="1"><path d="M30.71,15.29l-14-14a1,1,0,0,0-1.42,0l-14,14a1,1,0,0,0-.21,1.09A1,1,0,0,0,2,17H5V30a1,1,0,0,0,1,1h8a1,1,0,0,0,1-1V24h2v6a1,1,0,0,0,1,1h8a1,1,0,0,0,1-1V17h3a1,1,0,0,0,.92-.62A1,1,0,0,0,30.71,15.29Z" id="svg_1" fill="#b8b804" fill-opacity="1"/></g></g></svg>